<svg xmlns="http://www.w3.org/2000/svg" xmlns:xlink="http://www.w3.org/1999/xlink" width="23" height="22" viewBox="0 0 23 22">
  <defs>
    <clipPath id="clip-path">
      <rect id="Ret칙ngulo_5" data-name="Ret칙ngulo 5" width="23" height="22" transform="translate(-2876 -844)" fill="#fff"/>
    </clipPath>
    <linearGradient id="linear-gradient" x1="1" x2="0" y2="1" gradientUnits="objectBoundingBox">
      <stop offset="0" stop-color="#8743ff"/>
      <stop offset="1" stop-color="#4136f1"/>
    </linearGradient>
    <filter id="button1" x="-45" y="-30" width="112" height="112" filterUnits="userSpaceOnUse">
      <feOffset dy="15" input="SourceAlpha"/>
      <feGaussianBlur stdDeviation="15" result="blur"/>
      <feFlood flood-color="#1466cc" flood-opacity="0.161"/>
      <feComposite operator="in" in2="blur"/>
      <feComposite in="SourceGraphic"/>
    </filter>
  </defs>
  <g id="Grupo_de_m치scara_3" data-name="Grupo de m치scara 3" transform="translate(2876 844)" clip-path="url(#clip-path)">
    <g id="Grupo_19" data-name="Grupo 19" transform="translate(-3233 -877)">
      <g id="button_back" transform="translate(357.132 33.132)">
        <g transform="matrix(1, 0, 0, 1, -0.13, -0.13)" filter="url(#button1)">
          <rect id="button1-2" data-name="button1" width="22" height="22" rx="11" fill="url(#linear-gradient)"/>
        </g>
      </g>
      <path id="cog-solid" d="M31.853,16.767l-1.2-.693a5.428,5.428,0,0,0,0-1.978l1.2-.693a.341.341,0,0,0,.155-.395,7.018,7.018,0,0,0-1.541-2.666.339.339,0,0,0-.417-.065l-1.2.693a5.318,5.318,0,0,0-1.713-.989V8.6a.338.338,0,0,0-.265-.33,7.084,7.084,0,0,0-3.077,0,.338.338,0,0,0-.265.33V9.984a5.486,5.486,0,0,0-1.713.989l-1.2-.693a.335.335,0,0,0-.417.065,6.976,6.976,0,0,0-1.541,2.666.337.337,0,0,0,.155.395l1.2.693a5.428,5.428,0,0,0,0,1.978l-1.2.693a.341.341,0,0,0-.155.395A7.018,7.018,0,0,0,20.2,19.83a.339.339,0,0,0,.417.065l1.2-.693a5.318,5.318,0,0,0,1.713.989v1.386a.338.338,0,0,0,.265.33,7.084,7.084,0,0,0,3.077,0,.338.338,0,0,0,.265-.33V20.191a5.486,5.486,0,0,0,1.713-.989l1.2.693a.335.335,0,0,0,.417-.065,6.976,6.976,0,0,0,1.541-2.666A.348.348,0,0,0,31.853,16.767Zm-6.521.572a2.254,2.254,0,1,1,2.254-2.254A2.257,2.257,0,0,1,25.333,17.339Z" transform="translate(342.497 28.943)" fill="#fff"/>
    </g>
  </g>
</svg>
