<svg xmlns="http://www.w3.org/2000/svg" width="439.424" height="61.718" viewBox="0 0 439.424 61.718">
  <g id="Grupo_14" data-name="Grupo 14" transform="translate(0 0)">
    <g id="Grupo_3533" data-name="Grupo 3533" transform="translate(0)">
      <path id="Caminho_1" data-name="Caminho 1" d="M174.933,610.013h-9.077V580.97a10.884,10.884,0,0,0-18.588-7.7,10.855,10.855,0,0,0-1.38,1.67v35.07h-9.076v-47.2h9.076v.291A19.441,19.441,0,0,1,154.965,561q9,0,14.522,6.244Q174.933,561,183.936,561A19.956,19.956,0,0,1,203.9,580.97v29.043h-9.076V580.97a10.884,10.884,0,0,0-18.588-7.7,12.783,12.783,0,0,0-1.307,1.523Z" transform="translate(-136.813 -550.111)" fill="#fff"/>
      <path id="Caminho_2" data-name="Caminho 2" d="M263.886,607.327a25.413,25.413,0,1,1,0-41.824v-2.687h9.076v47.2h-9.076Zm0-13.36v-15.1a16.916,16.916,0,0,0-2.977-3.993,16.337,16.337,0,1,0,0,23.09A16.872,16.872,0,0,0,263.886,593.967Z" transform="translate(-150.689 -550.111)" fill="#fff"/>
      <path id="Caminho_3" data-name="Caminho 3" d="M298.2,600.211a29.454,29.454,0,0,0,11.254,2.541,16.907,16.907,0,0,0,7.806-1.452q2.723-1.453,2.722-3.7a4.738,4.738,0,0,0-1.344-3.376,7.367,7.367,0,0,0-3.594-2l-9.8-2.614a17.306,17.306,0,0,1-9-5.227,13.209,13.209,0,0,1-3.195-8.932,13.036,13.036,0,0,1,4.72-10.129q4.718-4.176,12.27-4.321a30.589,30.589,0,0,1,17.863,5.663l-6.027,6.9a23.064,23.064,0,0,0-11.691-3.485,10.141,10.141,0,0,0-5.808,1.634,4.583,4.583,0,0,0-2.179,3.811,4.06,4.06,0,0,0,1.488,3.232,11.378,11.378,0,0,0,4.175,2.069l10.165,2.759a15.806,15.806,0,0,1,8.314,5.047,13.675,13.675,0,0,1,3.086,9.113,12.508,12.508,0,0,1-4.9,10.057q-4.9,4.029-14.994,4.03a36.647,36.647,0,0,1-16.918-4.428Z" transform="translate(-161.621 -550.111)" fill="#fff"/>
      <path id="Caminho_4" data-name="Caminho 4" d="M346.412,548.048h9.076v12.706h7.261v9.077h-7.261v38.12h-9.076Z" transform="translate(-170.189 -548.048)" fill="#fff"/>
      <path id="Caminho_5" data-name="Caminho 5" d="M410.786,571.893l-6.607,6.607L381.96,600.72a15.666,15.666,0,0,0,7.914,2.033q7.479,0,12.853-6.245l7.115,5.592q-7.988,9.73-19.968,9.729a25.413,25.413,0,1,1,18.007-43.42A32.884,32.884,0,0,1,410.786,571.893Zm-13,.218A16.355,16.355,0,0,0,375.57,594.33Z" transform="translate(-173.063 -550.111)" fill="#fff"/>
      <path id="Caminho_6" data-name="Caminho 6" d="M439.086,577.484v32.53H430.01V562.744h9.076v1.889A22.811,22.811,0,0,1,451.792,561v9.076a13.937,13.937,0,0,0-10.238,4.212A14.893,14.893,0,0,0,439.086,577.484Z" transform="translate(-183.501 -550.111)" fill="#fff"/>
    </g>
    <g id="Grupo_3532" data-name="Grupo 3532" transform="translate(282.225)">
      <path id="Caminho_7" data-name="Caminho 7" d="M503.251,548.048v59.9h-9.076v-59.9Z" transform="translate(-494.175 -548.048)" fill="#ff508a"/>
      <path id="Caminho_8" data-name="Caminho 8" d="M557.767,568.444A25.418,25.418,0,1,1,539.8,561,24.49,24.49,0,0,1,557.767,568.444ZM539.8,570.078a16.363,16.363,0,1,0,11.545,4.792A15.734,15.734,0,0,0,539.8,570.078Z" transform="translate(-497.393 -550.111)" fill="#ff508a"/>
      <path id="Caminho_9" data-name="Caminho 9" d="M585.687,563.16,596.8,594.02l10.891-30.86h9.731l-17.137,47.2h-7.188l-17.135-47.2Z" transform="translate(-507.198 -550.454)" fill="#ff508a"/>
      <path id="Caminho_10" data-name="Caminho 10" d="M672.372,571.893l-6.607,6.607L643.546,600.72a15.667,15.667,0,0,0,7.915,2.033q7.477,0,12.852-6.245l7.115,5.592q-7.989,9.73-19.967,9.729a25.413,25.413,0,1,1,18.006-43.42A32.708,32.708,0,0,1,672.372,571.893Zm-13,.218a16.354,16.354,0,0,0-22.218,22.219Z" transform="translate(-515.174 -550.111)" fill="#ff508a"/>
    </g>
  </g>
</svg>
